<?xml version="1.0" encoding="UTF-8"?>
<svg xmlns="http://www.w3.org/2000/svg" xmlns:xlink="http://www.w3.org/1999/xlink" viewBox="0 0 192 192" width="192px" height="192px">
<g id="surface37863078">
<rect x="0" y="0" width="192" height="192" style="fill:rgb(11.372549%,11.764706%,14.901961%);fill-opacity:1;stroke:none;"/>
<path style=" stroke:none;fill-rule:nonzero;fill:rgb(0%,0%,0%);fill-opacity:1;" d="M 15.394531 144.652344 C 14.808594 132.285156 13.054688 113.386719 13.171875 93.449219 C 13.234375 82.210938 12.480469 52.605469 12.480469 52.605469 C 12.480469 33.691406 27.519531 18.804688 46.285156 16.441406 C 52.6875 15.632812 66.203125 13.371094 72.195312 14.121094 C 84.980469 15.710938 104.230469 13.242188 109.5 13.789062 C 133.472656 16.257812 134.476562 15.058594 142.730469 14.121094 C 161.527344 11.976562 177.914062 29.472656 176.980469 48.363281 C 176.167969 64.8125 172.097656 97.632812 173.5625 114.152344 C 174.667969 126.59375 176.472656 135.792969 176.980469 143.046875 C 178.300781 161.914062 166.804688 177.164062 142.734375 177.292969 C 136.289062 177.328125 128.457031 179.632812 117.035156 179.398438 C 103.160156 179.121094 90.851562 177.421875 84.617188 177.292969 C 75.476562 177.105469 57.191406 177.261719 48.046875 177.292969 C 29.140625 177.355469 16.625 170.367188 15.394531 144.652344 Z M 15.394531 144.652344 "/>
<path style=" stroke:none;fill-rule:nonzero;fill:rgb(0.392157%,0.392157%,0.392157%);fill-opacity:1;" d="M 10.480469 52.652344 C 10.480469 33.402344 25.769531 17.003906 46.035156 14.457031 C 47.246094 14.304688 48.71875 14.101562 50.347656 13.871094 C 57.515625 12.871094 67.335938 11.5 72.445312 12.136719 C 80.242188 13.109375 90.855469 12.511719 98.609375 12.078125 C 103.617188 11.800781 107.570312 11.578125 109.707031 11.800781 C 129.71875 13.863281 133.425781 13.351562 139.03125 12.578125 C 140.09375 12.433594 141.210938 12.28125 142.507812 12.132812 C 151.433594 11.113281 160.570312 14.300781 167.582031 20.875 C 175.214844 28.035156 179.457031 38.359375 178.980469 48.460938 C 178.726562 53.597656 178.148438 60.390625 177.539062 67.585938 C 176.210938 83.253906 174.558594 102.746094 175.554688 113.96875 C 176.136719 120.46875 176.898438 126.066406 177.578125 131.007812 C 178.199219 135.507812 178.730469 139.394531 178.976562 142.902344 C 179.683594 153.011719 176.785156 162.148438 170.8125 168.589844 C 164.378906 175.523438 154.671875 179.222656 142.742188 179.289062 C 140.246094 179.300781 137.492188 179.679688 134.292969 180.117188 C 129.433594 180.785156 123.925781 181.53125 116.996094 181.394531 C 108.613281 181.226562 100.828125 180.546875 94.570312 180 C 90.511719 179.644531 87.007812 179.339844 84.574219 179.289062 C 77.371094 179.136719 64.335938 179.203125 54.820312 179.257812 L 48.058594 179.289062 C 25.230469 179.367188 14.542969 168.710938 13.398438 144.742188 C 13.234375 141.328125 12.984375 137.40625 12.707031 133.109375 C 11.984375 121.882812 11.109375 107.925781 11.171875 93.433594 C 11.214844 82.339844 10.488281 52.949219 10.480469 52.652344 Z M 175.015625 46.847656 C 175.015625 38.351562 171.277344 29.828125 164.847656 23.796875 C 158.605469 17.941406 150.832031 15.207031 142.960938 16.105469 C 141.695312 16.246094 140.609375 16.398438 139.574219 16.539062 C 133.683594 17.351562 129.789062 17.882812 109.296875 15.777344 C 107.472656 15.589844 103.464844 15.8125 98.828125 16.070312 C 90.488281 16.535156 80.109375 17.117188 71.949219 16.101562 C 67.363281 15.527344 57.457031 16.914062 50.898438 17.832031 C 49.253906 18.058594 47.765625 18.269531 46.535156 18.425781 C 28.261719 20.722656 14.480469 35.414062 14.480469 52.601562 C 14.484375 52.84375 15.195312 82.351562 15.171875 93.457031 C 15.074219 107.785156 15.980469 121.691406 16.699219 132.851562 C 16.976562 137.179688 17.230469 141.117188 17.394531 144.554688 C 18.441406 166.457031 27.316406 175.359375 48.042969 175.292969 L 54.796875 175.261719 C 64.335938 175.207031 77.398438 175.140625 84.65625 175.292969 C 87.21875 175.34375 90.789062 175.65625 94.914062 176.019531 C 101.113281 176.558594 108.824219 177.234375 117.074219 177.398438 C 123.6875 177.535156 129.03125 176.804688 133.746094 176.15625 C 137.085938 175.699219 139.96875 175.308594 142.71875 175.292969 C 153.515625 175.230469 162.210938 171.976562 167.875 165.871094 C 173.164062 160.171875 175.628906 152.316406 174.980469 143.1875 C 174.742188 139.816406 174.21875 135.992188 173.613281 131.558594 C 172.929688 126.574219 172.152344 120.925781 171.566406 114.332031 C 170.535156 102.761719 172.140625 83.898438 173.550781 67.253906 C 174.15625 60.09375 174.730469 53.335938 174.980469 48.265625 C 175.007812 47.792969 175.015625 47.320312 175.015625 46.847656 Z M 175.015625 46.847656 "/>
<path style=" stroke:none;fill-rule:nonzero;fill:rgb(83.92157%,89.803922%,89.803922%);fill-opacity:1;" d="M 126.496094 97.734375 C 114.007812 97.519531 105.335938 89.402344 105.414062 78.003906 C 106.292969 66.277344 114.832031 57.566406 126.191406 56.683594 C 126.621094 56.65625 127.023438 56.644531 127.425781 56.644531 C 132.789062 56.644531 138.042969 58.953125 141.84375 62.976562 C 145.332031 66.671875 147.105469 71.304688 146.832031 76.019531 C 146.632812 88.777344 138.472656 97.742188 126.996094 97.742188 Z M 126.242188 69.867188 C 124.242188 69.867188 122.46875 70.59375 121.109375 71.964844 C 119.664062 73.421875 118.84375 75.496094 118.855469 77.660156 C 119.140625 81.042969 121.777344 84.699219 125.683594 84.699219 L 126.167969 84.679688 C 129.914062 84.4375 133.796875 81.324219 133.566406 76.714844 C 133.496094 73.460938 130.589844 69.964844 126.371094 69.867188 L 126.242188 67.867188 Z M 126.242188 69.867188 "/>
<path style=" stroke:none;fill-rule:nonzero;fill:rgb(0.392157%,0.392157%,0.392157%);fill-opacity:1;" d="M 127.425781 58.644531 C 136.820312 58.644531 145.367188 66.652344 144.835938 75.902344 C 144.648438 87.867188 137.046875 95.738281 126.992188 95.738281 C 126.839844 95.738281 126.691406 95.738281 126.539062 95.734375 C 115.269531 95.539062 107.339844 88.269531 107.414062 78.015625 C 108.234375 67.117188 116.140625 59.46875 126.34375 58.675781 C 126.707031 58.65625 127.0625 58.644531 127.425781 58.644531 M 125.683594 86.695312 C 125.894531 86.695312 126.109375 86.6875 126.320312 86.671875 C 131.269531 86.347656 135.839844 82.226562 135.5625 76.617188 C 135.46875 72.277344 131.597656 67.984375 126.414062 67.863281 C 126.355469 67.863281 126.300781 67.863281 126.238281 67.863281 C 120.660156 67.863281 116.816406 72.445312 116.855469 77.671875 C 117.253906 82.429688 120.859375 86.695312 125.683594 86.695312 M 127.425781 54.644531 C 126.976562 54.644531 126.53125 54.660156 126.085938 54.6875 C 113.671875 55.652344 104.375 65.121094 103.429688 77.714844 C 103.421875 77.808594 103.414062 77.894531 103.414062 77.988281 C 103.324219 90.355469 113.019531 99.503906 126.472656 99.734375 L 126.992188 99.738281 C 139.429688 99.738281 148.617188 89.738281 148.832031 75.96875 C 149.128906 70.863281 147.164062 65.699219 143.296875 61.601562 C 139.125 57.179688 133.335938 54.644531 127.425781 54.644531 Z M 120.859375 77.496094 C 120.882812 75.914062 121.488281 74.421875 122.53125 73.371094 C 123.210938 72.6875 124.410156 71.867188 126.246094 71.867188 C 129.359375 71.941406 131.523438 74.476562 131.570312 76.707031 C 131.742188 80.207031 128.84375 82.5 126.0625 82.679688 C 125.902344 82.691406 125.796875 82.695312 125.6875 82.695312 C 122.984375 82.695312 121.132812 80.078125 120.859375 77.496094 Z M 120.859375 77.496094 "/>
<path style=" stroke:none;fill-rule:nonzero;fill:rgb(83.92157%,89.803922%,89.803922%);fill-opacity:1;" d="M 83.113281 97.832031 C 81.695312 97.832031 79.933594 97.472656 78.875 97.257812 C 78.65625 97.210938 78.472656 97.171875 78.34375 97.152344 C 78.148438 97.148438 77.949219 97.113281 77.757812 97.046875 C 77.109375 96.828125 76.617188 96.296875 76.453125 95.628906 C 76.363281 95.265625 76.359375 95.238281 76.339844 87.863281 C 76.320312 79.742188 76.277344 63.050781 75.871094 60.515625 C 75.753906 60.246094 75.6875 59.953125 75.691406 59.648438 C 75.742188 57.117188 78.203125 57.105469 84.785156 57.0625 C 87.152344 57.050781 93.125 56.148438 93.664062 56.148438 C 93.777344 56.148438 93.890625 56.15625 94.003906 56.175781 C 102.261719 57.59375 106.925781 63.222656 107.261719 68.050781 C 107.246094 70.667969 105.941406 74.871094 103.433594 77.601562 C 105.292969 78.890625 106.855469 81.347656 106.902344 85.957031 C 107.222656 88.425781 106.382812 91.0625 104.523438 93.167969 C 102.253906 95.738281 98.707031 97.214844 94.808594 97.214844 C 94.808594 97.214844 94.472656 97.214844 94.304688 97.207031 C 91.625 98.40625 83.742188 97.832031 83.113281 97.832031 Z M 89.359375 84.636719 C 90.378906 84.679688 91.523438 84.757812 92.085938 84.796875 C 93.054688 84.785156 93.628906 84.054688 93.617188 83.675781 C 93.605469 83.089844 92.6875 83.003906 92.296875 82.996094 C 92.125 82.992188 91.957031 82.964844 91.796875 82.921875 C 91.421875 82.894531 90.738281 82.898438 90.035156 82.898438 C 89.796875 82.898438 89.570312 82.898438 89.363281 82.898438 C 89.359375 83.300781 89.359375 84.535156 89.359375 84.636719 Z M 89.359375 71.804688 C 90.375 71.84375 91.515625 71.921875 92.078125 71.960938 C 93.042969 71.949219 93.628906 71.207031 93.617188 70.839844 C 93.605469 70.253906 92.6875 70.167969 92.296875 70.160156 C 92.128906 70.15625 91.960938 70.128906 91.796875 70.085938 C 91.421875 70.058594 90.742188 70.066406 90.039062 70.0625 C 89.796875 70.0625 89.566406 70.0625 89.355469 70.058594 C 89.359375 70.46875 89.359375 71.703125 89.359375 71.804688 Z M 89.359375 71.804688 "/>
<path style=" stroke:none;fill-rule:nonzero;fill:rgb(0.392157%,0.392157%,0.392157%);fill-opacity:1;" d="M 87.800781 99.96875 C 86.054688 99.96875 84.464844 99.890625 83.613281 99.851562 L 83.109375 99.832031 C 81.480469 99.832031 79.601562 99.445312 78.476562 99.214844 C 77.878906 99.136719 77.484375 99.066406 77.109375 98.9375 C 75.816406 98.5 74.839844 97.441406 74.511719 96.105469 C 74.359375 95.476562 74.359375 95.476562 74.339844 87.867188 C 74.324219 81.289062 74.285156 64.074219 73.925781 61.027344 C 73.761719 60.570312 73.683594 60.097656 73.691406 59.609375 C 73.785156 55.128906 77.921875 55.105469 84.773438 55.0625 C 86.242188 55.054688 89.5 54.640625 91.445312 54.390625 C 92.605469 54.242188 93.464844 54.148438 93.667969 54.148438 L 94.347656 54.207031 C 103.621094 55.800781 108.867188 62.308594 109.265625 67.914062 C 109.257812 70.625 108.191406 74.398438 106.167969 77.367188 C 107.957031 79.378906 107.191406 82.445312 108.914062 85.941406 C 109.296875 88.785156 108.253906 91.988281 106.03125 94.496094 C 103.378906 97.496094 99.292969 99.214844 94.816406 99.214844 L 94.671875 99.214844 C 93.222656 99.71875 90.96875 99.96875 87.800781 99.96875 Z M 93.667969 58.144531 C 93.488281 58.15625 92.824219 58.242188 91.949219 58.355469 C 89.78125 58.632812 86.507812 59.046875 84.796875 59.058594 C 81.574219 59.074219 78.246094 59.097656 77.640625 59.566406 L 77.84375 60.195312 C 78.222656 62.574219 78.304688 74.894531 78.335938 87.855469 C 78.347656 92.695312 78.355469 94.851562 78.394531 95.167969 L 79.140625 95.269531 C 80.1875 95.484375 81.882812 95.832031 83.113281 95.832031 L 83.800781 95.859375 C 84.613281 95.898438 86.132812 95.972656 87.800781 95.972656 C 91.753906 95.972656 93.097656 95.558594 93.488281 95.382812 L 94.824219 95.214844 C 98.144531 95.214844 101.136719 93.988281 103.03125 91.84375 C 104.484375 90.199219 105.175781 88.148438 104.929688 86.210938 C 104.878906 82.691406 104 80.429688 102.296875 79.242188 L 100.414062 77.9375 L 101.96875 76.246094 C 104.019531 74.015625 105.257812 70.324219 105.269531 68.042969 C 104.984375 64.140625 100.90625 59.386719 93.667969 58.144531 Z M 92.113281 86.796875 C 91.394531 86.753906 90.277344 86.679688 89.277344 86.636719 L 87.359375 86.554688 L 87.359375 80.890625 L 90.402344 80.890625 C 91.023438 80.890625 91.585938 80.894531 91.925781 80.914062 L 92.332031 80.984375 C 94.71875 81.046875 95.59375 82.445312 95.621094 83.625 C 95.640625 84.332031 95.339844 85.054688 94.769531 85.65625 C 94.089844 86.367188 93.125 86.78125 92.113281 86.796875 Z M 92.113281 73.960938 C 91.390625 73.914062 90.28125 73.84375 89.28125 73.800781 L 87.359375 73.722656 L 87.359375 68.039062 L 89.378906 68.058594 L 90.484375 68.058594 C 91.070312 68.058594 91.605469 68.0625 91.929688 68.085938 L 92.34375 68.15625 C 94.71875 68.21875 95.597656 69.617188 95.621094 70.792969 C 95.640625 71.492188 95.339844 72.214844 94.769531 72.816406 C 94.085938 73.527344 93.117188 73.949219 92.113281 73.960938 Z M 92.113281 73.960938 "/>
<path style=" stroke:none;fill-rule:nonzero;fill:rgb(83.92157%,89.803922%,89.803922%);fill-opacity:1;" d="M 133.414062 77.695312 C 133.371094 72.855469 130.085938 69.804688 126.207031 70.019531 C 122.472656 70.671875 119.335938 73.476562 119.15625 76.832031 C 119.402344 81.632812 122.140625 83.980469 126.253906 84.488281 C 130.519531 83.914062 133.449219 81.433594 133.414062 77.695312 Z M 133.414062 77.695312 "/>
<path style=" stroke:none;fill-rule:nonzero;fill:rgb(0.392157%,0.392157%,0.392157%);fill-opacity:1;" d="M 126.253906 86.488281 C 126.167969 86.488281 126.089844 86.484375 126.007812 86.472656 C 120.585938 85.804688 117.441406 82.421875 117.15625 76.9375 C 117.382812 72.539062 121.042969 68.890625 125.863281 68.046875 C 125.976562 68.027344 126.480469 68.007812 126.597656 68.007812 C 131.574219 68.007812 135.367188 72.167969 135.421875 77.679688 C 135.460938 82.292969 131.96875 85.738281 126.519531 86.46875 C 126.429688 86.480469 126.339844 86.488281 126.253906 86.488281 Z M 126.59375 72.007812 C 123.597656 72.507812 121.273438 74.632812 121.152344 76.941406 C 121.328125 80.160156 122.949219 81.984375 126.234375 82.46875 C 127.738281 82.222656 131.445312 81.265625 131.410156 77.714844 C 131.386719 74.355469 129.402344 72.007812 126.59375 72.007812 Z M 126.59375 72.007812 "/>
<path style=" stroke:none;fill-rule:nonzero;fill:rgb(83.92157%,89.803922%,89.803922%);fill-opacity:1;" d="M 121.066406 137.871094 C 120.027344 137.785156 119.214844 136.886719 119.222656 135.847656 C 119.222656 135.695312 127.15625 122.019531 130.769531 118.65625 C 131.0625 117.816406 131.941406 117.503906 130.621094 116.023438 C 129.878906 115.246094 128.699219 113.851562 126.535156 111.296875 C 124.429688 108.800781 120.992188 104.742188 119.902344 103.707031 C 119.199219 103.414062 118.707031 102.753906 118.679688 101.964844 C 118.671875 101.691406 118.714844 101.421875 118.8125 101.167969 C 118.820312 101.148438 118.828125 101.128906 118.835938 101.105469 C 119.910156 98.378906 121.753906 98.066406 124.863281 98.242188 C 126.332031 98.328125 131.066406 99.242188 131.523438 99.359375 C 132.511719 99.613281 133.148438 100.5625 133.007812 101.570312 C 133.171875 102.632812 136.175781 107.5 137.445312 109.296875 C 137.488281 109.300781 137.527344 109.300781 137.566406 109.300781 C 137.792969 109.300781 137.902344 109.300781 138.398438 108.816406 C 138.40625 108.808594 138.617188 108.539062 138.617188 108.539062 C 141.988281 103.929688 147.066406 97.53125 148.78125 97.53125 C 148.992188 97.53125 149.230469 97.566406 149.433594 97.636719 C 149.867188 97.78125 152.691406 98.910156 153.613281 99.074219 C 155.742188 99.453125 157.949219 99.839844 157.78125 101.992188 C 157.726562 102.675781 157.328125 103.285156 156.722656 103.605469 C 156.652344 103.640625 156.578125 103.675781 156.507812 103.703125 C 154.695312 105.308594 147.308594 114.980469 146.238281 116.921875 C 146.175781 117.214844 145.652344 117.882812 145.453125 118.136719 C 145.050781 118.636719 146.472656 119.925781 146.535156 120.3125 C 147.179688 121.648438 151.09375 126.960938 153.003906 129.558594 C 154.175781 131.152344 155.167969 132.503906 155.652344 133.214844 C 155.980469 133.511719 156.21875 133.894531 156.296875 134.316406 C 156.402344 134.902344 156.203125 135.53125 155.816406 136 C 155.78125 136.046875 155.738281 136.09375 155.699219 136.136719 C 155.324219 136.539062 154.789062 136.769531 154.238281 136.769531 C 153.988281 136.769531 148.65625 137.746094 147.976562 137.746094 C 146.523438 137.746094 145.796875 136.328125 144.363281 134.859375 C 142.597656 133.046875 139.277344 129.746094 137.9375 127.609375 C 137.816406 127.777344 137.671875 127.976562 137.515625 128.195312 C 134.757812 132.070312 133.398438 133.578125 132.59375 134.34375 C 129.078125 137.671875 128.769531 138.515625 121.257812 137.894531 C 121.175781 137.878906 121.125 137.875 121.066406 137.871094 Z M 121.066406 137.871094 "/>
<path style=" stroke:none;fill-rule:nonzero;fill:rgb(0.392157%,0.392157%,0.392157%);fill-opacity:1;" d="M 124.933594 140.066406 C 123.882812 140.066406 122.625 140 121.066406 139.871094 C 118.820312 139.6875 117.207031 137.921875 117.21875 135.832031 C 117.238281 134.15625 125.957031 120.777344 129.09375 117.496094 C 129.113281 117.457031 129.132812 117.414062 129.15625 117.378906 C 129.148438 117.371094 129.136719 117.359375 129.128906 117.347656 C 128.421875 116.609375 127.210938 115.183594 125.011719 112.578125 C 123.210938 110.453125 119.953125 106.597656 118.730469 105.351562 C 117.519531 104.679688 116.730469 103.421875 116.683594 102.023438 C 116.664062 101.492188 116.753906 100.960938 116.945312 100.453125 C 118.4375 96.667969 121.292969 96.195312 123.621094 96.195312 C 124.042969 96.195312 124.5 96.210938 124.980469 96.238281 C 126.605469 96.332031 131.496094 97.28125 132.023438 97.414062 C 133.84375 97.878906 135.070312 99.535156 135.023438 101.375 C 135.316406 102.113281 136.613281 104.335938 137.804688 106.210938 C 145.804688 95.519531 147.71875 95.519531 148.773438 95.519531 C 149.199219 95.519531 149.65625 95.59375 150.054688 95.726562 C 150.171875 95.765625 150.480469 95.878906 150.882812 96.03125 C 151.589844 96.300781 153.457031 97.007812 153.953125 97.097656 C 156.09375 97.472656 160.074219 98.171875 159.769531 102.136719 C 159.664062 103.507812 158.871094 104.710938 157.65625 105.359375 L 157.640625 105.367188 C 155.777344 107.214844 149.285156 115.683594 148.0625 117.730469 C 147.980469 117.949219 147.859375 118.171875 147.695312 118.433594 C 147.96875 118.785156 148.226562 119.128906 148.378906 119.535156 C 149.109375 120.886719 153.039062 126.230469 154.546875 128.28125 C 155.707031 129.855469 156.65625 131.148438 157.179688 131.902344 C 157.742188 132.484375 158.121094 133.195312 158.257812 133.941406 C 158.464844 135.070312 158.128906 136.316406 157.351562 137.257812 C 156.398438 138.289062 155.335938 138.746094 154.230469 138.746094 C 154.199219 138.765625 153.484375 138.886719 152.625 139.035156 C 149.625 139.542969 148.46875 139.726562 147.96875 139.726562 C 145.96875 139.726562 144.824219 138.398438 143.816406 137.226562 C 143.542969 136.910156 143.257812 136.570312 142.925781 136.230469 L 142.34375 135.640625 C 141.066406 134.339844 139.355469 132.59375 137.964844 130.949219 C 135.738281 133.96875 134.625 135.140625 133.957031 135.777344 L 133.316406 136.386719 C 130.914062 138.683594 129.472656 140.066406 124.933594 140.066406 Z M 121.476562 135.890625 C 127.695312 136.390625 127.640625 136.285156 130.539062 133.503906 L 131.199219 132.875 C 132.222656 131.902344 133.753906 129.988281 135.867188 127.019531 L 138.03125 124.011719 L 139.613281 126.527344 C 140.699219 128.269531 143.511719 131.132812 145.191406 132.847656 L 145.777344 133.449219 C 146.171875 133.851562 146.515625 134.253906 146.835938 134.625 C 147.195312 135.039062 147.738281 135.675781 147.945312 135.730469 C 148.441406 135.703125 150.421875 135.355469 151.945312 135.097656 C 153.144531 134.890625 154.113281 134.753906 154.222656 134.753906 L 153.984375 134.328125 C 153.507812 133.628906 152.535156 132.300781 151.378906 130.730469 C 147.6875 125.714844 145.316406 122.40625 144.714844 121.167969 L 144.675781 121.085938 C 143.886719 120.046875 142.664062 118.390625 143.871094 116.875 C 143.984375 116.734375 144.242188 116.425781 144.367188 116.195312 C 145.554688 113.976562 153.101562 104.027344 155.167969 102.195312 L 155.761719 101.832031 C 155.515625 101.4375 154.042969 101.175781 153.253906 101.035156 C 152.453125 100.894531 151 100.359375 149.460938 99.777344 L 148.800781 99.527344 C 148.410156 99.761719 145.667969 102.273438 140.21875 109.714844 L 139.808594 110.222656 C 139.109375 110.90625 138.523438 111.296875 137.558594 111.296875 L 136.523438 111.296875 L 135.804688 110.445312 C 135.761719 110.378906 131.328125 103.863281 131.023438 101.867188 L 130.980469 101.578125 L 131.019531 101.289062 C 130.519531 101.167969 126.011719 100.304688 124.742188 100.230469 C 124.34375 100.210938 123.96875 100.195312 123.613281 100.195312 C 121.648438 100.195312 121.183594 100.585938 120.691406 101.832031 L 121.277344 102.253906 C 122.359375 103.28125 125.21875 106.644531 128.058594 110 C 130.179688 112.507812 131.339844 113.878906 132.0625 114.640625 C 133.871094 116.667969 133.371094 118.121094 132.738281 119.160156 L 132.574219 119.621094 L 132.121094 120.117188 C 129.3125 122.742188 123.210938 132.863281 121.476562 135.890625 Z M 121.476562 135.890625 "/>
<path style=" stroke:none;fill-rule:nonzero;fill:rgb(83.92157%,89.803922%,89.803922%);fill-opacity:1;" d="M 159.511719 104.574219 C 159.003906 104.574219 158.511719 104.382812 158.136719 104.027344 C 157.457031 103.378906 157.457031 102.777344 157.453125 100.984375 L 157.472656 100.984375 C 157.46875 100.941406 157.460938 100.894531 157.457031 100.847656 C 157.394531 100.101562 157.765625 99.382812 158.402344 98.988281 C 158.957031 98.648438 159.019531 98.648438 162.347656 98.636719 L 162.96875 98.632812 C 163.09375 98.609375 163.203125 98.59375 163.308594 98.59375 C 163.777344 98.59375 164.09375 98.839844 164.480469 99.242188 C 165.117188 99.902344 165.097656 100.371094 165.003906 102.613281 C 164.980469 103.191406 164.707031 103.726562 164.257812 104.09375 C 163.898438 104.378906 163.457031 104.53125 163.003906 104.53125 C 162.886719 104.53125 162.769531 104.523438 162.652344 104.5 L 162.207031 104.527344 C 161.4375 104.527344 160.277344 104.527344 159.84375 104.550781 C 159.738281 104.566406 159.625 104.574219 159.511719 104.574219 Z M 159.511719 104.574219 "/>
<path style=" stroke:none;fill-rule:nonzero;fill:rgb(0.392157%,0.392157%,0.392157%);fill-opacity:1;" d="M 163.042969 100.628906 C 163.054688 100.628906 163.011719 102.5 163.011719 102.527344 C 163.003906 102.527344 162.671875 102.523438 162.214844 102.523438 C 161.171875 102.523438 159.472656 102.535156 159.515625 102.578125 C 159.4375 102.507812 159.464844 100.695312 159.453125 100.691406 C 159.554688 100.628906 162.996094 100.636719 163.042969 100.628906 M 159.453125 100.691406 L 159.453125 100.691406 M 163.007812 102.527344 L 163.007812 102.527344 M 163.007812 102.527344 L 163.007812 102.527344 M 159.515625 102.574219 C 159.515625 102.578125 159.515625 102.578125 159.515625 102.574219 C 159.515625 102.578125 159.515625 102.578125 159.515625 102.574219 M 163.042969 96.628906 C 162.996094 96.628906 162.949219 96.628906 162.898438 96.632812 L 162.308594 96.636719 C 158.765625 96.652344 158.390625 96.652344 157.367188 97.28125 C 156.15625 98.019531 155.429688 99.351562 155.457031 100.773438 C 155.457031 100.785156 155.457031 100.796875 155.457031 100.808594 C 155.457031 102.914062 155.460938 104.308594 156.839844 105.550781 C 157.585938 106.21875 158.539062 106.578125 159.515625 106.578125 C 159.6875 106.578125 159.863281 106.566406 160.035156 106.542969 C 160.511719 106.527344 161.523438 106.523438 162.214844 106.523438 L 162.902344 106.527344 C 162.941406 106.527344 162.976562 106.527344 163.011719 106.527344 C 163.867188 106.527344 164.707031 106.253906 165.40625 105.730469 C 166.320312 105.046875 166.898438 104.007812 167 102.871094 C 167.230469 100.171875 167 99.015625 165.996094 97.925781 C 165.222656 97.089844 164.152344 96.628906 163.042969 96.628906 Z M 163.042969 96.628906 "/>
<path style=" stroke:none;fill-rule:nonzero;fill:rgb(83.92157%,89.803922%,89.803922%);fill-opacity:1;" d="M 46.371094 99.414062 C 45.667969 99.414062 45.046875 99.050781 44.691406 98.5 C 44.15625 97.691406 43.886719 97.019531 43.992188 64.972656 C 44 62.5 44.003906 60.695312 44 60.042969 C 43.992188 59.953125 43.988281 59.710938 43.988281 59.707031 C 43.992188 59.625 44.027344 59.355469 44.039062 59.308594 C 44.53125 57.015625 47.472656 57.015625 49.226562 57.015625 C 49.945312 57.015625 50.707031 57.035156 51.449219 57.058594 C 52.117188 57.078125 52.769531 57.101562 53.34375 57.101562 C 53.953125 57.101562 54.289062 57.074219 54.460938 57.054688 C 54.777344 56.855469 55.144531 56.753906 55.519531 56.753906 C 55.78125 56.753906 56.039062 56.804688 56.292969 56.90625 C 57.191406 57.285156 57.6875 58.253906 57.46875 59.199219 C 57.472656 59.367188 57.464844 60.851562 57.453125 62.699219 C 57.421875 67.035156 57.398438 69.832031 57.277344 71.632812 C 57.535156 71.65625 57.847656 71.671875 58.199219 71.671875 C 58.921875 71.671875 59.484375 71.605469 59.867188 71.523438 C 59.886719 70.59375 59.953125 68.554688 60.117188 63.910156 C 60.222656 60.789062 60.328125 57.855469 60.324219 57.449219 C 60.316406 56.378906 61.144531 55.496094 62.207031 55.4375 C 62.246094 55.4375 62.289062 55.433594 62.324219 55.433594 C 63.152344 55.433594 63.875 55.941406 64.175781 56.683594 C 64.449219 56.765625 65.03125 56.871094 66.171875 56.871094 C 67.300781 56.871094 68.496094 56.769531 69.4375 56.6875 C 70.152344 56.628906 70.746094 56.578125 71.113281 56.578125 C 71.914062 56.578125 73 57.128906 73.3125 57.867188 C 73.460938 58.21875 73.496094 58.613281 73.433594 58.992188 C 73.378906 62.390625 73.402344 95.238281 73.523438 97.148438 C 73.535156 97.226562 73.539062 97.308594 73.539062 97.382812 C 73.546875 98.394531 72.800781 99.257812 71.796875 99.382812 C 71.707031 99.394531 71.625 99.398438 71.535156 99.398438 C 71.058594 99.398438 70.617188 99.230469 70.265625 98.941406 C 69.660156 98.789062 68.320312 98.597656 67.304688 98.449219 C 62.789062 97.796875 60.765625 97.441406 60.105469 95.742188 L 60.195312 95.707031 C 59.789062 93.761719 59.992188 87.746094 60.191406 83.796875 C 59.699219 83.949219 57.472656 84.605469 57.039062 84.738281 C 57.035156 85.726562 57.050781 87.21875 57.066406 88.824219 C 57.144531 97.554688 57.101562 97.613281 56.605469 98.316406 C 56.214844 98.863281 55.601562 99.15625 54.972656 99.15625 C 54.660156 99.15625 54.34375 99.085938 54.054688 98.933594 C 53.90625 98.929688 53.730469 98.929688 53.539062 98.929688 C 51.425781 98.929688 47.5 99.277344 46.789062 99.363281 C 46.660156 99.398438 46.515625 99.414062 46.371094 99.414062 Z M 46.371094 99.414062 "/>
<path style=" stroke:none;fill-rule:nonzero;fill:rgb(0.392157%,0.392157%,0.392157%);fill-opacity:1;" d="M 62.328125 57.4375 C 62.453125 58.589844 64.222656 58.875 66.175781 58.875 C 68.140625 58.875 70.285156 58.585938 71.121094 58.585938 C 71.410156 58.585938 71.542969 58.621094 71.449219 58.714844 C 71.449219 58.691406 71.449219 58.679688 71.449219 58.679688 C 71.402344 58.679688 71.386719 96 71.542969 97.375 C 71.308594 96.601562 62.453125 96.246094 61.980469 95.03125 C 61.972656 95.03125 62.050781 81.933594 62.363281 80.648438 C 62.363281 80.644531 62.363281 80.640625 62.367188 80.636719 C 62.367188 80.640625 62.367188 80.644531 62.363281 80.648438 C 62.125 81.503906 55.238281 82.9375 55.132812 83.433594 C 55.125 83.390625 55.117188 83.371094 55.109375 83.371094 C 54.929688 83.371094 55.273438 96.757812 54.980469 97.164062 C 55.0625 96.996094 54.464844 96.9375 53.542969 96.9375 C 51.121094 96.9375 46.488281 97.367188 46.363281 97.414062 C 45.742188 96.484375 46.039062 60.71875 45.988281 59.726562 C 46.113281 59.148438 47.523438 59.019531 49.222656 59.019531 C 50.578125 59.019531 52.121094 59.101562 53.339844 59.101562 C 54.480469 59.101562 55.339844 59.027344 55.515625 58.753906 C 55.398438 59.265625 55.523438 72.882812 55.070312 72.882812 C 55.058594 72.882812 55.050781 72.875 55.039062 72.863281 C 55.144531 73.386719 56.632812 73.675781 58.195312 73.675781 C 60.191406 73.675781 62.3125 73.203125 61.859375 72.140625 C 61.824219 71.628906 62.335938 58.347656 62.328125 57.4375 M 45.992188 59.703125 C 45.992188 59.703125 45.992188 59.710938 45.996094 59.722656 C 45.992188 59.742188 45.988281 59.765625 45.988281 59.789062 C 45.988281 59.730469 45.992188 59.703125 45.992188 59.703125 M 45.988281 59.789062 C 45.988281 59.792969 45.988281 59.796875 45.988281 59.804688 C 45.984375 59.796875 45.984375 59.792969 45.988281 59.789062 M 55.132812 83.429688 C 55.136719 83.441406 55.136719 83.453125 55.140625 83.46875 C 55.132812 83.457031 55.128906 83.445312 55.132812 83.429688 M 71.539062 97.371094 C 71.542969 97.382812 71.542969 97.390625 71.542969 97.402344 C 71.542969 97.394531 71.542969 97.386719 71.539062 97.371094 M 46.367188 97.410156 C 46.371094 97.414062 46.371094 97.414062 46.367188 97.410156 C 46.367188 97.414062 46.363281 97.414062 46.367188 97.410156 M 62.332031 53.4375 C 62.257812 53.4375 62.175781 53.441406 62.101562 53.445312 C 60.4375 53.539062 59.0625 54.640625 58.546875 56.132812 C 58.15625 55.675781 57.65625 55.308594 57.066406 55.058594 C 56.566406 54.851562 56.042969 54.746094 55.523438 54.746094 C 54.964844 54.746094 54.410156 54.863281 53.902344 55.09375 C 53.761719 55.097656 53.605469 55.097656 53.4375 55.097656 C 53.40625 55.097656 53.375 55.097656 53.34375 55.097656 C 52.785156 55.097656 52.15625 55.074219 51.507812 55.058594 C 50.742188 55.035156 49.960938 55.015625 49.226562 55.015625 C 49.21875 55.015625 49.214844 55.015625 49.207031 55.015625 C 47.3125 55.015625 42.921875 55.027344 42.085938 58.875 C 42.058594 58.984375 42.042969 59.089844 42.027344 59.195312 C 42.007812 59.320312 41.996094 59.449219 41.992188 59.574219 C 41.992188 59.574219 41.992188 59.585938 41.992188 59.589844 L 41.992188 59.597656 C 41.992188 59.605469 41.992188 59.613281 41.992188 59.625 C 41.992188 59.628906 41.992188 59.632812 41.992188 59.636719 C 41.992188 59.660156 41.992188 59.683594 41.988281 59.703125 C 41.984375 59.859375 41.988281 60.015625 42.003906 60.171875 C 42.007812 60.832031 42 62.617188 41.992188 65.039062 C 41.921875 88.40625 41.996094 95.3125 42.390625 97.863281 C 42.394531 97.882812 42.394531 97.902344 42.398438 97.925781 C 42.429688 98.136719 42.46875 98.339844 42.527344 98.535156 C 42.648438 98.996094 42.792969 99.246094 42.957031 99.503906 C 43.566406 100.5 44.605469 101.207031 45.816406 101.375 C 46 101.402344 46.1875 101.417969 46.371094 101.417969 C 46.628906 101.417969 46.878906 101.390625 47.125 101.34375 C 47.984375 101.246094 51.636719 100.933594 53.542969 100.933594 C 53.574219 100.933594 53.609375 100.933594 53.640625 100.933594 C 54.074219 101.089844 54.527344 101.164062 54.976562 101.164062 C 56.230469 101.164062 57.464844 100.570312 58.238281 99.480469 C 58.621094 98.945312 58.84375 98.601562 58.964844 97.71875 C 60.421875 99.484375 63.179688 99.878906 67.023438 100.433594 C 67.78125 100.539062 68.835938 100.691406 69.453125 100.8125 C 70.066406 101.1875 70.785156 101.398438 71.535156 101.398438 C 71.703125 101.398438 71.875 101.386719 72.046875 101.367188 C 74.054688 101.113281 75.550781 99.390625 75.539062 97.367188 C 75.539062 97.214844 75.527344 97.058594 75.507812 96.902344 C 75.402344 94.972656 75.378906 63.105469 75.429688 59.140625 C 75.515625 58.453125 75.429688 57.738281 75.152344 57.089844 C 74.902344 56.5 73.878906 54.574219 71.109375 54.574219 C 70.703125 54.574219 70.050781 54.625 69.261719 54.691406 C 68.335938 54.773438 67.183594 54.867188 66.164062 54.867188 C 65.835938 54.867188 65.574219 54.855469 65.371094 54.84375 C 64.640625 53.976562 63.539062 53.4375 62.332031 53.4375 Z M 62.332031 53.4375 "/>
<path style=" stroke:none;fill-rule:nonzero;fill:rgb(83.92157%,89.803922%,89.803922%);fill-opacity:1;" d="M 100.261719 138.144531 C 99.644531 138.144531 99 138.105469 98.328125 138.019531 C 88.367188 136.878906 81.085938 128.59375 81.03125 118.316406 C 81.476562 107.523438 89.703125 97.898438 98.640625 97.621094 C 98.996094 97.601562 99.386719 97.59375 99.769531 97.59375 C 103.261719 97.59375 105.960938 98.523438 108.828125 100.875 C 109.398438 99.765625 110.304688 98.753906 111.375 98.753906 C 111.503906 98.753906 113.371094 98.136719 114.429688 98.136719 C 116.371094 98.136719 118.074219 99.429688 118.578125 101.28125 C 118.578125 101.289062 118.648438 101.5625 118.660156 101.695312 C 118.675781 101.90625 118.660156 102.113281 118.617188 102.3125 C 118.609375 102.957031 118.59375 105.367188 118.566406 108.5625 C 118.476562 121.628906 118.355469 133.539062 117.867188 135.789062 C 117.84375 135.898438 117.808594 136.011719 117.769531 136.117188 C 117.652344 136.472656 117.46875 136.804688 117.234375 137.035156 C 116.84375 137.425781 116.335938 137.621094 115.824219 137.621094 C 115.324219 137.621094 112.859375 137.886719 112.207031 137.886719 C 110.835938 137.886719 109.820312 136.722656 108.816406 135.324219 C 106.710938 136.726562 103.992188 138.144531 100.261719 138.144531 Z M 99.042969 108.664062 C 97.300781 108.664062 95.511719 109.519531 94.136719 111.007812 C 92.445312 112.839844 91.589844 115.335938 91.792969 117.847656 C 91.859375 123.011719 94.511719 127.089844 98.605469 128.53125 C 101.125 127.601562 106.765625 124.753906 106.261719 118.046875 C 106.382812 114.957031 105.394531 112.136719 103.617188 110.277344 C 102.566406 109.179688 99.433594 108.667969 99.300781 108.667969 C 99.277344 108.667969 99.042969 108.664062 99.042969 108.664062 Z M 99.042969 108.664062 "/>
<path style=" stroke:none;fill-rule:nonzero;fill:rgb(0.392157%,0.392157%,0.392157%);fill-opacity:1;" d="M 100.261719 140.144531 C 99.566406 140.144531 98.839844 140.101562 98.078125 140.003906 C 87.113281 138.753906 79.09375 129.632812 79.03125 118.324219 C 79.519531 106.496094 88.652344 95.929688 98.574219 95.617188 C 98.921875 95.601562 99.347656 95.589844 99.765625 95.589844 C 103.09375 95.589844 105.773438 96.34375 108.398438 98.074219 C 109.273438 97.214844 110.300781 96.746094 111.375 96.746094 C 112.273438 96.433594 113.453125 96.132812 114.429688 96.132812 C 117.273438 96.132812 119.773438 98.03125 120.507812 100.753906 C 120.550781 100.9375 120.632812 101.324219 120.648438 101.515625 C 120.671875 101.859375 120.660156 102.183594 120.609375 102.503906 L 120.5625 108.574219 C 120.449219 125.160156 120.300781 133.988281 119.816406 136.207031 C 119.792969 136.324219 119.652344 136.769531 119.609375 136.875 C 119.445312 137.398438 119.089844 138 118.636719 138.449219 C 117.882812 139.199219 116.878906 139.613281 115.816406 139.613281 C 115.59375 139.617188 115.007812 139.671875 114.386719 139.722656 C 113.511719 139.800781 112.574219 139.878906 112.199219 139.878906 C 110.515625 139.878906 109.257812 138.941406 108.347656 137.957031 C 106.367188 139.070312 103.679688 140.144531 100.261719 140.144531 Z M 99.765625 99.589844 C 99.421875 99.589844 99.066406 99.597656 98.746094 99.613281 C 90.757812 99.863281 83.433594 108.640625 83.027344 118.394531 C 83.074219 127.554688 89.609375 135.007812 98.550781 136.03125 C 102.90625 136.558594 105.6875 135 107.691406 133.65625 C 108.589844 133.050781 109.800781 133.273438 110.433594 134.152344 C 110.738281 134.578125 111.671875 135.878906 112.199219 135.878906 C 112.515625 135.878906 113.304688 135.804688 114.035156 135.738281 C 114.820312 135.667969 115.554688 135.613281 115.816406 135.613281 C 116.390625 133.132812 116.5 117.738281 116.5625 108.542969 L 116.613281 102.277344 C 116.613281 102.136719 116.632812 102 116.664062 101.863281 C 116.382812 100.816406 115.472656 100.132812 114.429688 100.132812 C 113.910156 100.132812 112.746094 100.457031 112.308594 100.574219 C 111.886719 100.691406 111.679688 100.746094 111.375 100.746094 C 111.324219 100.785156 110.960938 101.097656 110.609375 101.789062 C 110.332031 102.324219 109.828125 102.707031 109.234375 102.832031 C 108.648438 102.960938 108.03125 102.804688 107.5625 102.421875 C 105.105469 100.410156 102.84375 99.589844 99.765625 99.589844 Z M 98.601562 130.53125 C 98.375 130.53125 98.148438 130.496094 97.933594 130.421875 C 92.988281 128.671875 89.867188 123.867188 89.789062 117.875 C 89.546875 114.941406 90.597656 111.890625 92.664062 109.652344 C 94.414062 107.753906 96.738281 106.664062 99.039062 106.664062 C 99.050781 106.664062 99.0625 106.664062 99.070312 106.664062 L 99.304688 106.667969 C 99.328125 106.667969 103.351562 107.117188 105.050781 108.894531 C 107.226562 111.171875 108.390625 114.539062 108.246094 118.132812 C 108.664062 123.507812 105.316406 128.183594 99.289062 130.410156 C 99.070312 130.492188 98.835938 130.53125 98.601562 130.53125 Z M 99.042969 110.664062 C 97.855469 110.664062 96.605469 111.285156 95.609375 112.363281 C 94.292969 113.789062 93.628906 115.726562 93.785156 117.6875 C 93.84375 121.792969 95.667969 125.007812 98.609375 126.375 C 101.148438 125.285156 104.621094 122.914062 104.265625 118.199219 C 104.359375 115.457031 103.597656 113.15625 102.167969 111.660156 C 101.777344 111.28125 100 110.773438 99.09375 110.65625 Z M 99.042969 110.664062 "/>
<path style=" stroke:none;fill-rule:nonzero;fill:rgb(83.92157%,89.803922%,89.803922%);fill-opacity:1;" d="M 76.246094 138.945312 C 75.78125 138.945312 72.542969 137.972656 72.246094 137.898438 C 69.210938 137.179688 68.410156 134.863281 68.484375 129.972656 C 68.675781 127.996094 68.527344 122.625 68.453125 119.878906 C 68.375 117.132812 68.339844 115.796875 68.410156 115.046875 C 67.816406 111.972656 66.574219 110.167969 64.066406 110 C 64.054688 110 64.027344 110 64.027344 110 C 62.402344 110 60.714844 110.671875 59.761719 111.636719 C 59.460938 111.9375 59.113281 112.386719 59.058594 112.890625 C 59.238281 114.078125 59.207031 116.6875 59.089844 122.441406 C 59.003906 126.574219 58.875 132.746094 59.121094 134.191406 C 59.144531 134.863281 59.050781 135.402344 59.0625 135.742188 C 59.144531 138.058594 54.34375 138.003906 54.101562 138.003906 C 54.066406 138.003906 54.03125 138.003906 54 138.003906 C 52.226562 137.910156 49.628906 135.96875 49.550781 135.902344 C 48.558594 135.050781 48.390625 133.660156 48.953125 116.878906 C 49.011719 115.179688 49.054688 113.90625 49.050781 113.488281 C 49.050781 113.476562 49.050781 113.464844 49.046875 113.453125 C 48.921875 112.019531 46.414062 109.003906 44.496094 108.574219 C 40.359375 108.96875 39.445312 113.410156 39.433594 113.46875 C 39.421875 113.777344 39.453125 115.714844 39.488281 118.246094 C 39.722656 135.449219 39.355469 136.515625 38.425781 137.464844 C 38.046875 137.84375 37.453125 138.101562 36.914062 138.101562 C 36.5 138.101562 36.023438 137.945312 35.683594 137.703125 C 35.296875 137.429688 31.304688 136.804688 30.191406 135.28125 C 29.566406 134.421875 28.921875 133.390625 28.847656 132.0625 C 28.636719 128.320312 28.542969 116.453125 28.742188 113.605469 L 28.71875 113.605469 C 28.785156 106.34375 33.324219 101.371094 40.472656 100.210938 C 41.804688 99.996094 44.554688 99.304688 46.132812 99.304688 C 49.191406 99.304688 51.828125 100.464844 53.730469 102.605469 C 54.347656 102.230469 54.941406 101.855469 55.519531 101.492188 C 56.945312 100.59375 59.859375 98.734375 62.636719 98.691406 C 67.523438 98.613281 72.0625 100.730469 75.105469 104.292969 C 77.699219 107.332031 78.859375 111.054688 78.394531 114.832031 C 78.433594 114.984375 78.460938 115.148438 78.480469 115.324219 C 78.507812 115.546875 80.894531 137.816406 76.738281 138.878906 C 76.578125 138.925781 76.414062 138.945312 76.246094 138.945312 Z M 76.246094 138.945312 "/>
<path style=" stroke:none;fill-rule:nonzero;fill:rgb(0.392157%,0.392157%,0.392157%);fill-opacity:1;" d="M 76.246094 140.945312 C 75.777344 140.945312 75.152344 140.8125 72.390625 140.019531 L 71.773438 139.84375 C 66.773438 138.664062 66.421875 134.113281 66.480469 129.945312 C 66.667969 127.925781 66.519531 122.527344 66.449219 119.9375 C 66.375 117.378906 66.339844 116.050781 66.390625 115.175781 C 65.738281 112.121094 64.613281 112.042969 63.929688 112 C 62.832031 112 61.683594 112.527344 61.167969 113.046875 L 61.085938 113.042969 C 61.222656 114.476562 61.191406 116.996094 61.078125 122.484375 C 61.011719 125.765625 60.867188 132.589844 61.085938 133.859375 C 61.128906 134.605469 61.097656 135.023438 61.070312 135.371094 C 61.085938 136.640625 60.742188 137.523438 60.066406 138.222656 C 58.566406 139.777344 55.71875 140.007812 54.15625 140.007812 C 51.3125 139.867188 48.269531 137.445312 48.238281 137.421875 C 46.445312 135.875 46.359375 134.527344 46.953125 116.820312 C 47.011719 115.019531 47.050781 113.898438 47.046875 113.515625 C 46.90625 112.957031 45.351562 111.101562 44.320312 110.628906 C 42.011719 111.097656 41.410156 113.769531 41.386719 113.886719 C 41.429688 113.816406 41.441406 114.890625 41.464844 116.523438 L 41.488281 118.230469 C 41.734375 136.269531 41.382812 137.320312 39.847656 138.878906 C 38.503906 140.242188 36.078125 140.453125 34.527344 139.347656 C 34.703125 139.472656 34.460938 139.410156 34.179688 139.335938 C 31.964844 138.734375 29.707031 138.019531 28.578125 136.472656 C 27.785156 135.378906 26.957031 134.015625 26.851562 132.195312 C 26.648438 128.621094 26.546875 117.488281 26.71875 113.925781 L 26.71875 113.605469 C 26.792969 105.472656 31.9375 99.59375 40.152344 98.257812 C 40.519531 98.195312 41.003906 98.097656 41.539062 97.988281 C 43 97.691406 44.816406 97.320312 46.132812 97.320312 C 49.167969 97.320312 51.855469 98.273438 54.003906 100.097656 L 54.449219 99.820312 C 56.054688 98.804688 59.296875 96.765625 62.601562 96.710938 C 62.605469 96.710938 62.605469 96.710938 62.609375 96.710938 C 68.199219 96.710938 73.199219 99.007812 76.621094 103.011719 C 79.5 106.382812 80.839844 110.542969 80.410156 114.765625 C 80.433594 114.871094 80.449219 114.984375 80.460938 115.101562 C 81.148438 120.769531 82.957031 139.367188 77.230469 140.835938 C 76.902344 140.902344 76.574219 140.945312 76.246094 140.945312 Z M 64.019531 108 C 67.476562 108.222656 69.554688 110.464844 70.367188 114.667969 L 70.425781 114.957031 L 70.398438 115.246094 C 70.335938 115.867188 70.375 117.277344 70.449219 119.828125 C 70.527344 122.707031 70.675781 128.0625 70.472656 130.167969 C 70.402344 135.410156 71.523438 135.675781 72.707031 135.957031 L 73.496094 136.175781 C 74.3125 136.410156 75.664062 136.808594 76.273438 136.929688 C 77.488281 135.507812 77.484375 124.257812 76.496094 115.558594 L 76.410156 114.59375 C 76.804688 111.382812 75.800781 108.1875 73.578125 105.59375 C 70.921875 102.476562 67.023438 100.691406 62.894531 100.691406 C 60.480469 100.726562 57.882812 102.363281 56.636719 103.152344 C 55.996094 103.554688 55.394531 103.9375 54.769531 104.316406 L 53.34375 105.179688 L 52.234375 103.933594 C 50.710938 102.210938 48.601562 101.304688 46.132812 101.304688 C 45.214844 101.304688 43.550781 101.640625 42.335938 101.886719 C 41.738281 102.007812 41.203125 102.121094 40.792969 102.183594 C 35.1875 103.097656 31.578125 106.625 30.855469 111.769531 L 30.738281 113.738281 C 30.542969 116.539062 30.644531 128.386719 30.84375 131.949219 C 30.886719 132.691406 31.261719 133.34375 31.8125 134.101562 C 32.101562 134.464844 33.246094 134.921875 35.222656 135.457031 C 36.039062 135.675781 36.453125 135.789062 36.847656 136.070312 C 37.640625 135.03125 37.609375 126.90625 37.492188 118.273438 L 37.46875 116.566406 C 37.445312 114.84375 37.429688 113.628906 37.4375 113.386719 C 37.945312 110.84375 39.90625 106.996094 44.308594 106.578125 L 44.625 106.546875 L 44.933594 106.617188 C 47.71875 107.238281 50.835938 111.007812 51.039062 113.265625 C 51.054688 113.867188 51.015625 115.054688 50.960938 116.664062 C 50.652344 125.929688 50.441406 133.453125 50.914062 134.464844 C 51.542969 134.902344 53.289062 135.957031 54.101562 135.996094 C 55.617188 135.996094 56.757812 135.714844 57.125 135.488281 C 57.058594 135.488281 57.070312 135.289062 57.09375 135.066406 C 57.109375 134.839844 57.132812 134.566406 57.121094 134.257812 C 56.886719 133 56.96875 127.914062 57.085938 122.390625 C 57.183594 117.386719 57.238281 114.269531 57.074219 113.183594 L 57.039062 112.9375 L 57.0625 112.683594 C 57.152344 111.816406 57.59375 110.960938 58.339844 110.214844 C 59.675781 108.875 61.910156 108 64.019531 108 Z M 64.019531 108 "/>
</g>
</svg>
